<?xml version="1.0" standalone="no"?>
<!DOCTYPE svg PUBLIC "-//W3C//DTD SVG 20010904//EN"
 "http://www.w3.org/TR/2001/REC-SVG-20010904/DTD/svg10.dtd">
<svg version="1.0" xmlns="http://www.w3.org/2000/svg"
 width="500.000000pt" height="500.000000pt" viewBox="0 0 500.000000 500.000000"
 preserveAspectRatio="xMidYMid meet">
<metadata>
Created by potrace 1.14, written by Peter Selinger 2001-2017
</metadata>
<g transform="translate(0.000000,500.000000) scale(0.100000,-0.100000)"
fill="#000000" stroke="none">
<path d="M0 2500 l0 -2500 2500 0 2500 0 0 2500 0 2500 -2500 0 -2500 0 0
-2500z m3905 1538 c60 -31 104 -77 136 -138 l24 -45 0 -1315 0 -1315 -27 -58
c-38 -80 -117 -160 -197 -200 l-66 -32 -1275 0 -1275 0 -66 32 c-80 40 -159
120 -197 200 l-27 58 0 1070 0 1070 24 45 c57 109 140 160 272 168 l87 5 4
131 c4 142 18 189 72 254 32 37 103 81 149 92 18 5 545 7 1172 7 l1140 -2 50
-27z"/>
<path d="M1549 3841 l-29 -29 0 -1211 0 -1211 -29 -32 c-39 -44 -98 -46 -138
-5 l-28 27 -3 1000 -2 1000 -64 0 c-55 0 -69 -4 -95 -26 l-31 -26 0 -1032 0
-1032 29 -46 c19 -30 44 -52 73 -67 l45 -21 1235 2 1234 3 41 27 c24 16 49 44
62 70 l21 44 0 1269 0 1269 -27 28 -27 28 -1119 0 -1119 0 -29 -29z m1018
-194 l28 -27 3 -373 c2 -410 2 -409 -58 -439 -31 -16 -72 -18 -385 -18 -396 0
-409 2 -432 70 -16 46 -18 688 -2 743 7 25 21 45 42 58 31 18 49 19 404 17
l373 -3 27 -28z m1095 -184 c23 -21 23 -38 -2 -63 -19 -19 -33 -20 -425 -20
-392 0 -406 1 -425 20 -24 24 -24 29 -4 58 l15 22 411 0 c369 0 413 -2 430
-17z m-2 -293 c24 -24 25 -38 3 -62 -15 -17 -42 -18 -429 -18 l-413 0 -15 22
c-20 29 -20 34 4 58 19 19 33 20 425 20 392 0 406 -1 425 -20z m2 -297 c23
-21 23 -38 -2 -63 -19 -19 -33 -20 -425 -20 -392 0 -406 1 -425 20 -24 24 -24
29 -4 58 l15 22 411 0 c369 0 413 -2 430 -17z m-2 -293 c24 -24 25 -38 3 -62
-15 -17 -59 -18 -969 -18 l-953 0 -15 21 c-16 23 -12 47 12 67 12 9 219 12
959 12 930 0 943 0 963 -20z m11 -304 c8 -17 8 -29 0 -45 l-12 -21 -963 0
-963 0 -11 24 c-8 18 -7 28 4 45 l15 21 960 0 959 0 11 -24z m-1089 -283 c22
-20 23 -41 1 -65 -15 -17 -42 -18 -425 -18 -395 0 -409 1 -428 20 -11 11 -20
25 -20 30 0 6 9 19 20 30 19 19 33 20 427 20 364 0 408 -2 425 -17z m1080 0
c22 -20 23 -41 1 -65 -15 -17 -42 -18 -429 -18 l-413 0 -15 22 c-20 29 -20 34
4 58 19 19 33 20 427 20 364 0 408 -2 425 -17z m-1071 -307 c8 -17 8 -29 0
-45 l-12 -21 -421 2 c-411 3 -421 3 -434 23 -12 18 -11 24 2 43 l15 22 420 0
419 0 11 -24z m1080 0 c8 -17 8 -29 0 -45 -12 -21 -14 -21 -431 -21 l-420 0
-15 24 c-13 19 -14 29 -5 45 11 21 16 21 436 21 l424 0 11 -24z m-1089 -283
c22 -20 23 -41 1 -65 -15 -17 -41 -18 -423 -18 -421 0 -429 1 -443 41 -3 9 1
26 9 38 15 21 19 21 426 21 369 0 413 -2 430 -17z m1080 0 c23 -21 23 -38 -2
-63 -19 -19 -33 -20 -425 -20 -392 0 -406 1 -425 20 -24 24 -24 29 -4 58 l15
22 411 0 c369 0 413 -2 430 -17z"/>
<path d="M1910 3235 l0 -245 245 0 245 0 0 245 0 245 -245 0 -245 0 0 -245z"/>
</g>
</svg>
